<?xml version="1.0" encoding="utf-8"?>
<!-- Generator: Adobe Illustrator 21.1.0, SVG Export Plug-In . SVG Version: 6.00 Build 0)  -->
<svg version="1.1" id="Layer_2" xmlns="http://www.w3.org/2000/svg" xmlns:xlink="http://www.w3.org/1999/xlink" x="0px" y="0px"
	 viewBox="0 0 612 612" style="enable-background:new 0 0 612 612;" xml:space="preserve">
<style type="text/css">
	.st0{fill:#FFFFFF;}
	.st1{fill:#292929;}
</style>
<g>
	<circle class="st0" cx="305" cy="305" r="305"/>
	<circle class="st1" cx="305" cy="305" r="228.6"/>
	<g>
		<g>
			<g id="Cross">
				<g>
					<path class="st0" d="M408.3,201.6l-0.5-0.5c-14.2-14.2-37.2-14.2-51.4,0l-52.2,52.2L252,201.1c-14.2-14.2-37.2-14.2-51.4,0
						l-0.5,0.5c-14.2,14.2-14.2,37.2,0,51.4l52.2,52.2l-52.2,52.2c-14.2,14.2-14.2,37.2,0,51.4l0.5,0.5c14.2,14.2,37.2,14.2,51.4,0
						l52.2-52.2l52.2,52.2c14.2,14.2,37.2,14.2,51.4,0l0.5-0.5c14.2-14.2,14.2-37.2,0-51.4l-52.2-52.2l52.2-52.2
						C422.5,238.8,422.5,215.8,408.3,201.6z"/>
				</g>
			</g>
		</g>
	</g>
</g>
</svg>
