<svg xmlns="http://www.w3.org/2000/svg" viewBox="0 0 266.89 266.9"><defs><style>.cls-1{fill:#fff;}</style></defs><title>Asset 2</title><g id="Layer_2" data-name="Layer 2"><g id="Layer_1-2" data-name="Layer 1"><g id="White"><path id="White-2" class="cls-1" d="M252.17,0H14.73A14.73,14.73,0,0,0,0,14.73V252.17A14.73,14.73,0,0,0,14.73,266.9H142.56V163.54H107.78V123.26h34.78V93.56c0-34.47,21-53.24,51.81-53.24a285.37,285.37,0,0,1,31.08,1.58v36H204.12c-16.72,0-20,7.95-20,19.61v25.72H224l-5.19,40.28H184.16V266.9h68a14.73,14.73,0,0,0,14.73-14.73V14.73A14.73,14.73,0,0,0,252.17,0Z"/></g></g></g></svg>