<?xml version="1.0" encoding="utf-8"?>
<!-- Generator: Adobe Illustrator 21.1.0, SVG Export Plug-In . SVG Version: 6.00 Build 0)  -->
<svg version="1.1" id="Layer_1" xmlns="http://www.w3.org/2000/svg" xmlns:xlink="http://www.w3.org/1999/xlink" x="0px" y="0px"
	 viewBox="0 0 1000 1000" style="enable-background:new 0 0 1000 1000;" xml:space="preserve">
<style type="text/css">
	.st0{fill:#FFFFFF;}
</style>
<g>
	<path class="st0" d="M517.2,193.7c125,0,227.2,2.1,321.7,6.3h1.3h1.3c44.2,0,80.4,42.1,80.4,94v2.1l0.2,2.1
		c4.4,65.1,6.5,132.6,6.5,200.8l0,0l0,0c0.2,68.1-2.1,135.7-6.5,200.8l-0.2,2.1v2.1c0,26.4-9,50.9-25.6,69.1
		c-14.9,16.5-34.5,25.6-54.7,25.6h-1.5h-1.5c-101.3,4.8-208.2,7.3-318.5,7.3c-6.7,0-13.6,0-20.3,0h0.2h-0.2c-6.9,0-13.8,0-20.7,0
		c-110.6,0-217.6-2.5-318.1-7.1h-1.5H158c-20.3,0-39.6-9.2-54.5-25.6C87,755,77.8,730.5,77.8,704.1V702l-0.2-2.1
		c-4.6-65.3-6.7-132.8-6.3-200.4v-0.2v-0.2c-0.2-67.6,1.9-134.9,6.3-200.2l0.2-2.1v-2.1c0-52.1,36-94.4,80.2-94.4h1.3h1.3
		c94.7-4.4,197-6.3,321.9-6.3h17.2h17.4 M517.2,132.4c-5.7,0-11.5,0-17.2,0s-11.5,0-17.2,0c-110.2,0-218.6,1.5-324.6,6.3
		c-78.1,0-141.4,69.5-141.4,155.6c-4.8,68.5-6.9,136.7-6.7,205c-0.2,68.3,1.7,136.5,6.5,204.8c0,86.1,63.4,156.2,141.4,156.2
		c104.9,5,211.9,7.3,321.2,7.3c6.9,0,14,0,20.9,0s13.8,0,20.5,0c109.3,0,216.3-2.3,321.4-7.3c78.3,0,141.6-70.1,141.6-156.2
		c4.6-68.3,6.7-136.7,6.5-205c0.2-68.3-1.9-136.5-6.5-205c0-86.1-63.4-155.2-141.6-155.2C735.8,133.9,627.7,132.4,517.2,132.4
		L517.2,132.4z"/>
	<path class="st0" d="M406.2,687.1V311.2l277.5,188L406.2,687.1z"/>
</g>
</svg>
